<?xml version="1.0" encoding="iso-8859-1"?>
<!-- Generator: Adobe Illustrator 19.0.0, SVG Export Plug-In . SVG Version: 6.00 Build 0)  -->
<svg xmlns="http://www.w3.org/2000/svg" xmlns:xlink="http://www.w3.org/1999/xlink" version="1.1" id="Layer_1" x="0px" y="0px" viewBox="0 0 512 512" style="enable-background:new 0 0 512 512;" xml:space="preserve" width="512px" height="512px">
<g>
	<g>
		<path d="M431.251,418.735c-17.893-15.77-42.076-28.589-71.892-38.109c-1.856-0.984-7.853-4.199-14.979-8.399    c-12.774-7.528-22.429-14.224-27.679-19.167v-25.654c32.078-18.339,54.012-51.244,61.022-91.521    c18.171-5.201,33.988-22.259,33.988-37.947c0-15.88-11.938-26.419-31.67-28.602v-0.429h31.67v-23.753    c0-7.811-3.035-15.081-8.549-20.485c-5.404-5.512-12.673-8.546-20.482-8.546h-2.639V65.979l-0.033-0.717    c-0.064-0.714-1.784-17.658-18.906-34.036C339.439,10.506,304.077,0,256,0s-83.439,10.506-105.102,31.227    c-17.122,16.378-18.843,33.322-18.906,34.036l-0.033,0.358v50.503h-2.639c-16.007,0-29.031,13.023-29.031,29.031v23.753h31.67    v0.429c-19.733,2.183-31.67,12.722-31.67,28.602c0,15.688,15.817,32.746,33.988,37.949c7.017,40.292,28.955,73.195,61.022,91.521    v25.653c-5.25,4.943-14.904,11.639-27.678,19.167c-7.148,4.213-13.162,7.435-14.998,8.408    c-29.397,9.543-53.328,22.274-71.142,37.845c-33.105,28.922-33.957,57.862-33.977,59.079V512h416.99v-34.354    C464.487,476.431,463.951,447.553,431.251,418.735z M395.876,197.938c0,6.467-6.996,15.272-16.116,20.132    c0.174-3.129,0.281-32.819,0.281-32.819C394.152,187.229,395.876,194.526,395.876,197.938z M147.794,66.482    c0.305-2.005,2.523-13.255,14.989-24.692C186.166,20.339,226.381,15.835,256,15.835s69.834,4.504,93.217,25.955    c12.564,11.526,14.718,22.863,14.989,24.669v49.665H147.794V66.482z M116.124,197.938c0-3.412,1.724-10.709,15.835-12.687    c0,0,0.107,29.691,0.281,32.819C123.12,213.211,116.124,204.405,116.124,197.938z M116.124,153.073v-7.919    c0-7.277,5.919-13.196,13.196-13.196H382.68c3.535,0,6.805,1.361,9.21,3.832l0.154,0.154c2.472,2.405,3.833,5.675,3.833,9.211    v7.918H116.124z M149.089,228.19c-0.858-6.115-1.295-12.742-1.295-19.696v-39.588h216.412v39.588    c0,6.953-0.436,13.579-1.297,19.714c-5.445,39.426-26.499,71.309-57.78,87.488c-14.74,7.672-31.269,11.562-49.129,11.562    c-17.86,0-34.388-3.89-49.147-11.572C175.591,299.518,154.537,267.635,149.089,228.19z M300.866,334.963v18.276    c-5.416,5.661-22.577,21.524-44.866,21.524c-22.145,0-39.425-15.893-44.866-21.54v-18.261c13.916,5.392,28.951,8.131,44.866,8.131    C271.918,343.093,286.956,340.353,300.866,334.963z M63.34,496.165v-18.371c0.041-0.87,1.446-21.822,25.151-44.274    c5.488,1.69,17.248,5.919,28.803,14.009c17.9,12.533,27.99,28.868,30.083,48.636H63.34z M248.082,496.165h-84.796    c-2.203-25.156-15.012-46.448-37.377-61.933c-8.244-5.707-16.459-9.7-23.056-12.382c14.87-10.46,59.381-28.368,63.456-30.631    c5.763,16.904,24.017,44.418,81.772,46.726V496.165z M191.442,402.394c-6.908-6.984-9.83-14.434-11.068-19.348    c9.558-5.822,17.111-11.05,22.578-15.629c9.128,8.595,28.271,23.181,53.048,23.181c24.778,0,43.92-14.586,53.049-23.18    c5.465,4.578,13.018,9.807,22.577,15.627c-1.24,4.927-4.164,12.371-11.066,19.349c-13.045,13.187-34.765,19.874-64.56,19.874    S204.485,415.581,191.442,402.394z M263.918,496.165v-58.22c57.739-2.307,75.999-29.805,81.769-46.728    c4.077,2.264,48.838,20.066,63.747,30.517c-6.644,2.682-14.979,6.709-23.342,12.498c-22.367,15.485-35.175,36.776-37.377,61.933    H263.918z M448.661,496.165h-0.001h-84.037c2.093-19.767,12.183-36.103,30.083-48.636c11.786-8.251,23.792-12.489,29.132-14.11    c23.774,22.512,24.783,43.052,24.822,44.351V496.165z" fill="#D80027"/>
	</g>
</g>
<g>
	<g>
		<polygon points="263.918,242.804 263.918,208.495 248.082,208.495 248.082,258.639 277.113,258.639 277.113,242.804   " fill="#D80027"/>
	</g>
</g>
<g>
	<g>
		<rect x="213.773" y="459.216" width="21.113" height="15.835" fill="#D80027"/>
	</g>
</g>
<g>
	<g>
		<rect x="277.113" y="459.216" width="21.113" height="15.835" fill="#D80027"/>
	</g>
</g>
<g>
	<g>
		<rect x="229.608" y="42.227" width="52.784" height="15.835" fill="#D80027"/>
	</g>
</g>
<g>
	<g>
		<rect x="219.052" y="73.897" width="73.897" height="15.835" fill="#D80027"/>
	</g>
</g>
<g>
</g>
<g>
</g>
<g>
</g>
<g>
</g>
<g>
</g>
<g>
</g>
<g>
</g>
<g>
</g>
<g>
</g>
<g>
</g>
<g>
</g>
<g>
</g>
<g>
</g>
<g>
</g>
<g>
</g>
</svg>
